@startuml

title Посетитель (Visitor)

note as INFO
<b>Тип:</b> <u>Поведенческий</u>
<b>Что это:</b>
Представляет собой операцию,
которая будет выполнена над
объектами группы классов.
Даёт возможность определить
новую операцию без изменения
кода классов, над которами эта
операция проводится.
endnote

class Client
interface Visitor{
    +visitElementA(in a : ConcreteElementA)
    +visitElementB(in b : ConcreteElementB)
}
class ConcreteVisitor{
    +visitElementA(in a : ConcreteElementA)
    +visitElementB(in b : ConcreteElementB)
}
interface Element{
    +accept(in v : Visitor)
}
class ConcreteElementA{
    +accept(in v : Visitor)
}
class ConcreteElementB{
    +accept(in v : Visitor)
}

Client --> Visitor
Client --> Element
ConcreteVisitor ..|> Visitor
ConcreteElementA ..|> Element
ConcreteElementB ..|> Element

@enduml